<svg id="mermaid-1646407543992" width="100%" xmlns="http://www.w3.org/2000/svg" xmlns:xlink="http://www.w3.org/1999/xlink" height="212.1875" style="max-width: 675.84375px;" viewBox="-20 -20 675.84375 212.1875"><style>#mermaid-1646407543992{font-family:"trebuchet ms",verdana,arial,sans-serif;font-size:16px;fill:#333;}#mermaid-1646407543992 .error-icon{fill:#552222;}#mermaid-1646407543992 .error-text{fill:#552222;stroke:#552222;}#mermaid-1646407543992 .edge-thickness-normal{stroke-width:2px;}#mermaid-1646407543992 .edge-thickness-thick{stroke-width:3.5px;}#mermaid-1646407543992 .edge-pattern-solid{stroke-dasharray:0;}#mermaid-1646407543992 .edge-pattern-dashed{stroke-dasharray:3;}#mermaid-1646407543992 .edge-pattern-dotted{stroke-dasharray:2;}#mermaid-1646407543992 .marker{fill:#333333;stroke:#333333;}#mermaid-1646407543992 .marker.cross{stroke:#333333;}#mermaid-1646407543992 svg{font-family:"trebuchet ms",verdana,arial,sans-serif;font-size:16px;}#mermaid-1646407543992 g.classGroup text{fill:#9370DB;fill:#131300;stroke:none;font-family:"trebuchet ms",verdana,arial,sans-serif;font-size:10px;}#mermaid-1646407543992 g.classGroup text .title{font-weight:bolder;}#mermaid-1646407543992 .classTitle{font-weight:bolder;}#mermaid-1646407543992 .node rect,#mermaid-1646407543992 .node circle,#mermaid-1646407543992 .node ellipse,#mermaid-1646407543992 .node polygon,#mermaid-1646407543992 .node path{fill:#ECECFF;stroke:#9370DB;stroke-width:1px;}#mermaid-1646407543992 .divider{stroke:#9370DB;stroke:1;}#mermaid-1646407543992 g.clickable{cursor:pointer;}#mermaid-1646407543992 g.classGroup rect{fill:#ECECFF;stroke:#9370DB;}#mermaid-1646407543992 g.classGroup line{stroke:#9370DB;stroke-width:1;}#mermaid-1646407543992 .classLabel .box{stroke:none;stroke-width:0;fill:#ECECFF;opacity:0.5;}#mermaid-1646407543992 .classLabel .label{fill:#9370DB;font-size:10px;}#mermaid-1646407543992 .relation{stroke:#333333;stroke-width:1;fill:none;}#mermaid-1646407543992 .dashed-line{stroke-dasharray:3;}#mermaid-1646407543992 #compositionStart,#mermaid-1646407543992 .composition{fill:#333333 !important;stroke:#333333 !important;stroke-width:1;}#mermaid-1646407543992 #compositionEnd,#mermaid-1646407543992 .composition{fill:#333333 !important;stroke:#333333 !important;stroke-width:1;}#mermaid-1646407543992 #dependencyStart,#mermaid-1646407543992 .dependency{fill:#333333 !important;stroke:#333333 !important;stroke-width:1;}#mermaid-1646407543992 #dependencyStart,#mermaid-1646407543992 .dependency{fill:#333333 !important;stroke:#333333 !important;stroke-width:1;}#mermaid-1646407543992 #extensionStart,#mermaid-1646407543992 .extension{fill:#333333 !important;stroke:#333333 !important;stroke-width:1;}#mermaid-1646407543992 #extensionEnd,#mermaid-1646407543992 .extension{fill:#333333 !important;stroke:#333333 !important;stroke-width:1;}#mermaid-1646407543992 #aggregationStart,#mermaid-1646407543992 .aggregation{fill:#ECECFF !important;stroke:#333333 !important;stroke-width:1;}#mermaid-1646407543992 #aggregationEnd,#mermaid-1646407543992 .aggregation{fill:#ECECFF !important;stroke:#333333 !important;stroke-width:1;}#mermaid-1646407543992 .edgeTerminals{font-size:11px;}#mermaid-1646407543992:root{--mermaid-font-family:"trebuchet ms",verdana,arial,sans-serif;}</style><g></g><defs><marker id="extensionStart" class="extension" refX="0" refY="7" markerWidth="190" markerHeight="240" orient="auto"><path d="M 1,7 L18,13 V 1 Z"></path></marker></defs><defs><marker id="extensionEnd" refX="19" refY="7" markerWidth="20" markerHeight="28" orient="auto"><path d="M 1,1 V 13 L18,7 Z"></path></marker></defs><defs><marker id="compositionStart" class="extension" refX="0" refY="7" markerWidth="190" markerHeight="240" orient="auto"><path d="M 18,7 L9,13 L1,7 L9,1 Z"></path></marker></defs><defs><marker id="compositionEnd" refX="19" refY="7" markerWidth="20" markerHeight="28" orient="auto"><path d="M 18,7 L9,13 L1,7 L9,1 Z"></path></marker></defs><defs><marker id="aggregationStart" class="extension" refX="0" refY="7" markerWidth="190" markerHeight="240" orient="auto"><path d="M 18,7 L9,13 L1,7 L9,1 Z"></path></marker></defs><defs><marker id="aggregationEnd" refX="19" refY="7" markerWidth="20" markerHeight="28" orient="auto"><path d="M 18,7 L9,13 L1,7 L9,1 Z"></path></marker></defs><defs><marker id="dependencyStart" class="extension" refX="0" refY="7" markerWidth="190" markerHeight="240" orient="auto"><path d="M 5,7 L9,13 L1,7 L9,1 Z"></path></marker></defs><defs><marker id="dependencyEnd" refX="19" refY="7" markerWidth="20" markerHeight="28" orient="auto"><path d="M 18,7 L9,13 L14,7 L9,1 Z"></path></marker></defs><g id="classid-laa_application-0" class="classGroup" transform="translate(255.6875,0 )"><rect x="0" y="0" width="104.09375" height="81.0625" class=" "></rect><text y="15" x="0"><tspan class="title" x="16.3828125">laa_application</tspan></text><line x1="0" y1="21.0625" y2="21.0625" x2="104.09375"></line><text x="5" y="31.0625" fill="white" class="classText"><tspan x="5">client_details</tspan><tspan x="5" dy="10">case_details</tspan><tspan x="5" dy="10">interests_of_justice</tspan><tspan x="5" dy="10">means_assessment</tspan><tspan x="5" dy="10">evidence</tspan></text><line x1="0" y1="77.0625" y2="77.0625" x2="104.09375"></line><text x="5" y="92.0625" fill="white" class="classText"></text></g><g id="classid-client_details-1" class="classGroup" transform="translate(0,131.09375 )"><rect x="0" y="0" width="77.875" height="41.0625" class=" clickable"></rect><a xlink:href="https://raw.githubusercontent.com/ministryofjustice/laa-schemas/main/prototyping/criminal-legal-aid/diagrams/client_details.svg" target="_blank"><text y="15" x="0"><tspan class="title" x="7.1328125">client_details</tspan><title>Click to see client_details</title></text></a><line x1="0" y1="21" y2="21" x2="77.875"></line><text x="5" y="31" fill="white" class="classText"><tspan x="5">[click_to_see]</tspan></text><line x1="0" y1="37.0625" y2="37.0625" x2="77.875"></line><text x="5" y="52.0625" fill="white" class="classText"></text></g><g id="classid-case_details-2" class="classGroup" transform="translate(127.875,131.09375 )"><rect x="0" y="0" width="77.875" height="41.0625" class=" clickable"></rect><a xlink:href="https://raw.githubusercontent.com/ministryofjustice/laa-schemas/main/prototyping/criminal-legal-aid/diagrams/case_details.svg" target="_blank"><text y="15" x="0"><tspan class="title" x="10.2109375">case_details</tspan><title>Click to see case_details</title></text></a><line x1="0" y1="21" y2="21" x2="77.875"></line><text x="5" y="31" fill="white" class="classText"><tspan x="5">[click_to_see]</tspan></text><line x1="0" y1="37.0625" y2="37.0625" x2="77.875"></line><text x="5" y="52.0625" fill="white" class="classText"></text></g><g id="classid-interests_of_justice-3" class="classGroup" transform="translate(255.75,131.0625 )"><rect x="0" y="0" width="103.96875" height="41.125" class=" clickable"></rect><a xlink:href="https://raw.githubusercontent.com/ministryofjustice/laa-schemas/main/prototyping/criminal-legal-aid/diagrams/interests_of_justice.svg" target="_blank"><text y="15" x="0"><tspan class="title" x="5">interests_of_justice</tspan><title>Click to see interests_of_justice</title></text></a><line x1="0" y1="21.0625" y2="21.0625" x2="103.96875"></line><text x="5" y="31.0625" fill="white" class="classText"><tspan x="5">[click_to_see]</tspan></text><line x1="0" y1="37.125" y2="37.125" x2="103.96875"></line><text x="5" y="52.125" fill="white" class="classText"></text></g><g id="classid-means_assessment-4" class="classGroup" transform="translate(409.71875,131.09375 )"><rect x="0" y="0" width="98.25" height="41.0625" class=" clickable"></rect><a xlink:href="https://raw.githubusercontent.com/ministryofjustice/laa-schemas/main/prototyping/criminal-legal-aid/diagrams/means_assessment.svg" target="_blank"><text y="15" x="0"><tspan class="title" x="5">means_assessment</tspan><title>Click to see means_assessment</title></text></a><line x1="0" y1="21" y2="21" x2="98.25"></line><text x="5" y="31" fill="white" class="classText"><tspan x="5">[click_to_see]</tspan></text><line x1="0" y1="37.0625" y2="37.0625" x2="98.25"></line><text x="5" y="52.0625" fill="white" class="classText"></text></g><g id="classid-evidence-5" class="classGroup" transform="translate(557.96875,131.09375 )"><rect x="0" y="0" width="77.875" height="41.0625" class=" clickable"></rect><a xlink:href="https://raw.githubusercontent.com/ministryofjustice/laa-schemas/main/prototyping/criminal-legal-aid/diagrams/evidence.svg" target="_blank"><text y="15" x="0"><tspan class="title" x="17.7734375">evidence</tspan><title>Click to see evidence</title></text></a><line x1="0" y1="21" y2="21" x2="77.875"></line><text x="5" y="31" fill="white" class="classText"><tspan x="5">[click_to_see]</tspan></text><line x1="0" y1="37.0625" y2="37.0625" x2="77.875"></line><text x="5" y="52.0625" fill="white" class="classText"></text></g><path d="M255.6875,53.22000159855839L219.5625,62.02708466546533C183.4375,70.83416773237225,111.1875,88.44833386618613,75.0625,101.42729193309306C38.9375,114.40625,38.9375,122.75,38.9375,126.921875L38.9375,131.09375" id="edge0" class="relation" marker-end="url(#dependencyEnd)"></path><path d="M255.6875,64.73399905754519L240.875,71.62208254795432C226.0625,78.51016603836347,196.4375,92.28633301918173,181.625,103.34629150959086C166.8125,114.40625,166.8125,122.75,166.8125,126.921875L166.8125,131.09375" id="edge1" class="relation" marker-end="url(#dependencyEnd)"></path><path d="M307.734375,81.0625L307.734375,85.22916666666667C307.734375,89.39583333333333,307.734375,97.72916666666667,307.734375,106.0625C307.734375,114.39583333333333,307.734375,122.72916666666667,307.734375,126.89583333333333L307.734375,131.0625" id="edge2" class="relation" marker-end="url(#dependencyEnd)"></path><path d="M359.78125,63.10229681522077L376.2916666666667,70.26233067935064C392.8020833333333,77.42236454348051,425.8229166666667,91.74243227174026,442.3333333333333,103.07434113587014C458.84375,114.40625,458.84375,122.75,458.84375,126.921875L458.84375,131.09375" id="edge3" class="relation" marker-end="url(#dependencyEnd)"></path><path d="M359.78125,52.32595436861728L399.3020833333333,61.28204530718107C438.8229166666667,70.23813624574485,517.8645833333334,88.15031812287242,557.3854166666666,101.2782840614362C596.90625,114.40625,596.90625,122.75,596.90625,126.921875L596.90625,131.09375" id="edge4" class="relation" marker-end="url(#dependencyEnd)"></path></svg>