<svg id="mermaid-1646392320031" width="100%" xmlns="http://www.w3.org/2000/svg" xmlns:xlink="http://www.w3.org/1999/xlink" height="534.4375" style="max-width: 1310.515625px;" viewBox="-20 -20 1310.515625 534.4375"><style>#mermaid-1646392320031{font-family:"trebuchet ms",verdana,arial,sans-serif;font-size:16px;fill:#333;}#mermaid-1646392320031 .error-icon{fill:#552222;}#mermaid-1646392320031 .error-text{fill:#552222;stroke:#552222;}#mermaid-1646392320031 .edge-thickness-normal{stroke-width:2px;}#mermaid-1646392320031 .edge-thickness-thick{stroke-width:3.5px;}#mermaid-1646392320031 .edge-pattern-solid{stroke-dasharray:0;}#mermaid-1646392320031 .edge-pattern-dashed{stroke-dasharray:3;}#mermaid-1646392320031 .edge-pattern-dotted{stroke-dasharray:2;}#mermaid-1646392320031 .marker{fill:#333333;stroke:#333333;}#mermaid-1646392320031 .marker.cross{stroke:#333333;}#mermaid-1646392320031 svg{font-family:"trebuchet ms",verdana,arial,sans-serif;font-size:16px;}#mermaid-1646392320031 g.classGroup text{fill:#9370DB;fill:#131300;stroke:none;font-family:"trebuchet ms",verdana,arial,sans-serif;font-size:10px;}#mermaid-1646392320031 g.classGroup text .title{font-weight:bolder;}#mermaid-1646392320031 .classTitle{font-weight:bolder;}#mermaid-1646392320031 .node rect,#mermaid-1646392320031 .node circle,#mermaid-1646392320031 .node ellipse,#mermaid-1646392320031 .node polygon,#mermaid-1646392320031 .node path{fill:#ECECFF;stroke:#9370DB;stroke-width:1px;}#mermaid-1646392320031 .divider{stroke:#9370DB;stroke:1;}#mermaid-1646392320031 g.clickable{cursor:pointer;}#mermaid-1646392320031 g.classGroup rect{fill:#ECECFF;stroke:#9370DB;}#mermaid-1646392320031 g.classGroup line{stroke:#9370DB;stroke-width:1;}#mermaid-1646392320031 .classLabel .box{stroke:none;stroke-width:0;fill:#ECECFF;opacity:0.5;}#mermaid-1646392320031 .classLabel .label{fill:#9370DB;font-size:10px;}#mermaid-1646392320031 .relation{stroke:#333333;stroke-width:1;fill:none;}#mermaid-1646392320031 .dashed-line{stroke-dasharray:3;}#mermaid-1646392320031 #compositionStart,#mermaid-1646392320031 .composition{fill:#333333 !important;stroke:#333333 !important;stroke-width:1;}#mermaid-1646392320031 #compositionEnd,#mermaid-1646392320031 .composition{fill:#333333 !important;stroke:#333333 !important;stroke-width:1;}#mermaid-1646392320031 #dependencyStart,#mermaid-1646392320031 .dependency{fill:#333333 !important;stroke:#333333 !important;stroke-width:1;}#mermaid-1646392320031 #dependencyStart,#mermaid-1646392320031 .dependency{fill:#333333 !important;stroke:#333333 !important;stroke-width:1;}#mermaid-1646392320031 #extensionStart,#mermaid-1646392320031 .extension{fill:#333333 !important;stroke:#333333 !important;stroke-width:1;}#mermaid-1646392320031 #extensionEnd,#mermaid-1646392320031 .extension{fill:#333333 !important;stroke:#333333 !important;stroke-width:1;}#mermaid-1646392320031 #aggregationStart,#mermaid-1646392320031 .aggregation{fill:#ECECFF !important;stroke:#333333 !important;stroke-width:1;}#mermaid-1646392320031 #aggregationEnd,#mermaid-1646392320031 .aggregation{fill:#ECECFF !important;stroke:#333333 !important;stroke-width:1;}#mermaid-1646392320031 .edgeTerminals{font-size:11px;}#mermaid-1646392320031:root{--mermaid-font-family:"trebuchet ms",verdana,arial,sans-serif;}</style><g></g><defs><marker id="extensionStart" class="extension" refX="0" refY="7" markerWidth="190" markerHeight="240" orient="auto"><path d="M 1,7 L18,13 V 1 Z"></path></marker></defs><defs><marker id="extensionEnd" refX="19" refY="7" markerWidth="20" markerHeight="28" orient="auto"><path d="M 1,1 V 13 L18,7 Z"></path></marker></defs><defs><marker id="compositionStart" class="extension" refX="0" refY="7" markerWidth="190" markerHeight="240" orient="auto"><path d="M 18,7 L9,13 L1,7 L9,1 Z"></path></marker></defs><defs><marker id="compositionEnd" refX="19" refY="7" markerWidth="20" markerHeight="28" orient="auto"><path d="M 18,7 L9,13 L1,7 L9,1 Z"></path></marker></defs><defs><marker id="aggregationStart" class="extension" refX="0" refY="7" markerWidth="190" markerHeight="240" orient="auto"><path d="M 18,7 L9,13 L1,7 L9,1 Z"></path></marker></defs><defs><marker id="aggregationEnd" refX="19" refY="7" markerWidth="20" markerHeight="28" orient="auto"><path d="M 18,7 L9,13 L1,7 L9,1 Z"></path></marker></defs><defs><marker id="dependencyStart" class="extension" refX="0" refY="7" markerWidth="190" markerHeight="240" orient="auto"><path d="M 5,7 L9,13 L1,7 L9,1 Z"></path></marker></defs><defs><marker id="dependencyEnd" refX="19" refY="7" markerWidth="20" markerHeight="28" orient="auto"><path d="M 18,7 L9,13 L14,7 L9,1 Z"></path></marker></defs><g id="classid-means_assessment-0" class="classGroup" transform="translate(395.93359375,0 )"><rect x="0" y="0" width="98.25" height="81.0625" class=" "></rect><text y="15" x="0"><tspan class="title" x="5">means_assessment</tspan></text><line x1="0" y1="21" y2="21" x2="98.25"></line><text x="5" y="31" fill="white" class="classText"><tspan x="5">benefits_status</tspan><tspan x="5" dy="10">total_income</tspan><tspan x="5" dy="10">income</tspan><tspan x="5" dy="10">outgoings</tspan><tspan x="5" dy="10">capital</tspan></text><line x1="0" y1="77.0625" y2="77.0625" x2="98.25"></line><text x="5" y="92.0625" fill="white" class="classText"></text></g><g id="classid-benefits_status-1" class="classGroup" transform="translate(174.1171875,156.09375 )"><rect x="0" y="0" width="81.8125" height="41.0625" class=" clickable"></rect><a xlink:href="https://raw.githubusercontent.com/ministryofjustice/laa-schemas/main/prototyping/criminal-legal-aid/diagrams/benefits_status.svg" target="_blank"><text y="15" x="0"><tspan class="title" x="5">benefits_status</tspan><title>Click to see benefits_status</title></text></a><line x1="0" y1="21" y2="21" x2="81.8125"></line><text x="5" y="31" fill="white" class="classText"><tspan x="5">[click_to_see]</tspan></text><line x1="0" y1="37.0625" y2="37.0625" x2="81.8125"></line><text x="5" y="52.0625" fill="white" class="classText"></text></g><g id="classid-income-2" class="classGroup" transform="translate(305.9296875,136.09375 )"><rect x="0" y="0" width="117.625" height="81.0625" class=" "></rect><text y="15" x="0"><tspan class="title" x="41.8046875">income</tspan></text><line x1="0" y1="21" y2="21" x2="117.625"></line><text x="5" y="31" fill="white" class="classText"><tspan x="5">employment_status</tspan><tspan x="5" dy="10">employed_income</tspan><tspan x="5" dy="10">self_employed_income</tspan><tspan x="5" dy="10">other_income_sources</tspan><tspan x="5" dy="10">dependants</tspan></text><line x1="0" y1="77.0625" y2="77.0625" x2="117.625"></line><text x="5" y="92.0625" fill="white" class="classText"></text></g><g id="classid-employed_income-3" class="classGroup" transform="translate(0,297.1875 )"><rect x="0" y="0" width="160.953125" height="61.125" class=" "></rect><text y="15" x="0"><tspan class="title" x="37.7109375">employed_income</tspan></text><line x1="0" y1="21.0625" y2="21.0625" x2="160.953125"></line><text x="5" y="31.0625" fill="white" class="classText"><tspan x="5">paye</tspan><tspan x="5" dy="10">other_employed_income</tspan><tspan x="5" dy="10">other_employed_income_details</tspan></text><line x1="0" y1="57.125" y2="57.125" x2="160.953125"></line><text x="5" y="72.125" fill="white" class="classText"></text></g><g id="classid-paye-4" class="classGroup" transform="translate(35.390625,433.3125 )"><rect x="0" y="0" width="90.171875" height="61.125" class=" "></rect><text y="15" x="0"><tspan class="title" x="33.9609375">paye</tspan></text><line x1="0" y1="21.0625" y2="21.0625" x2="90.171875"></line><text x="5" y="31.0625" fill="white" class="classText"><tspan x="5">paye_date</tspan><tspan x="5" dy="10">paye_amount</tspan><tspan x="5" dy="10">paye_deductions</tspan></text><line x1="0" y1="57.125" y2="57.125" x2="90.171875"></line><text x="5" y="72.125" fill="white" class="classText"></text></g><g id="classid-self_employed_income-5" class="classGroup" transform="translate(210.953125,272.1875 )"><rect x="0" y="0" width="129.421875" height="111.125" class=" "></rect><text y="15" x="0"><tspan class="title" x="10.6640625">self_employed_income</tspan></text><line x1="0" y1="21.0625" y2="21.0625" x2="129.421875"></line><text x="5" y="31.0625" fill="white" class="classText"><tspan x="5">business_name</tspan><tspan x="5" dy="10">business_address</tspan><tspan x="5" dy="10">tax_liability_last_2_years</tspan><tspan x="5" dy="10">total_turnover</tspan><tspan x="5" dy="10">total_drawings</tspan><tspan x="5" dy="10">total_profit</tspan><tspan x="5" dy="10">profit_share</tspan><tspan x="5" dy="10">director_salary</tspan></text><line x1="0" y1="107.125" y2="107.125" x2="129.421875"></line><text x="5" y="122.125" fill="white" class="classText"></text></g><g id="classid-business_address-6" class="classGroup" transform="translate(230.3046875,443.34375 )"><rect x="0" y="0" width="90.71875" height="41.0625" class=" clickable"></rect><a xlink:href="https://raw.githubusercontent.com/ministryofjustice/laa-schemas/main/prototyping/general/address.svg" target="_blank"><text y="15" x="0"><tspan class="title" x="5">business_address</tspan><title>Click to see address</title></text></a><line x1="0" y1="21" y2="21" x2="90.71875"></line><text x="5" y="31" fill="white" class="classText"><tspan x="5">[click_to_see]</tspan></text><line x1="0" y1="37.0625" y2="37.0625" x2="90.71875"></line><text x="5" y="52.0625" fill="white" class="classText"></text></g><g id="classid-other_income_sources-7" class="classGroup" transform="translate(390.375,297.21875 )"><rect x="0" y="0" width="126.890625" height="61.0625" class=" "></rect><text y="15" x="0"><tspan class="title" x="10.1328125">other_income_sources</tspan></text><line x1="0" y1="21" y2="21" x2="126.890625"></line><text x="5" y="31" fill="white" class="classText"><tspan x="5">income_type</tspan><tspan x="5" dy="10">other_income_amount</tspan><tspan x="5" dy="10">other_income_frequency</tspan></text><line x1="0" y1="57.0625" y2="57.0625" x2="126.890625"></line><text x="5" y="72.0625" fill="white" class="classText"></text></g><g id="classid-dependants-8" class="classGroup" transform="translate(567.265625,307.21875 )"><rect x="0" y="0" width="76.546875" height="41.0625" class=" "></rect><text y="15" x="0"><tspan class="title" x="11.1015625">dependants</tspan></text><line x1="0" y1="21.0625" y2="21.0625" x2="76.546875"></line><text x="5" y="31.0625" fill="white" class="classText"><tspan x="5">date_of_birth</tspan></text><line x1="0" y1="37.0625" y2="37.0625" x2="76.546875"></line><text x="5" y="52.0625" fill="white" class="classText"></text></g><g id="classid-outgoings-9" class="classGroup" transform="translate(693.14453125,146.0625 )"><rect x="0" y="0" width="103.640625" height="61.125" class=" "></rect><text y="15" x="0"><tspan class="title" x="29.6015625">outgoings</tspan></text><line x1="0" y1="21.0625" y2="21.0625" x2="103.640625"></line><text x="5" y="31.0625" fill="white" class="classText"><tspan x="5">outgoing_type</tspan><tspan x="5" dy="10">outgoing_amount</tspan><tspan x="5" dy="10">outgoing_frequency</tspan></text><line x1="0" y1="57.125" y2="57.125" x2="103.640625"></line><text x="5" y="72.125" fill="white" class="classText"></text></g><g id="classid-capital-10" class="classGroup" transform="translate(936.55859375,131.0625 )"><rect x="0" y="0" width="116.78125" height="91.125" class=" "></rect><text y="15" x="0"><tspan class="title" x="42.640625">capital</tspan></text><line x1="0" y1="21.0625" y2="21.0625" x2="116.78125"></line><text x="5" y="31.0625" fill="white" class="classText"><tspan x="5">housing</tspan><tspan x="5" dy="10">vehicle</tspan><tspan x="5" dy="10">savings</tspan><tspan x="5" dy="10">assets</tspan><tspan x="5" dy="10">prohibited_assets</tspan><tspan x="5" dy="10">prohibited_description</tspan></text><line x1="0" y1="87.125" y2="87.125" x2="116.78125"></line><text x="5" y="102.125" fill="white" class="classText"></text></g><g id="classid-housing-11" class="classGroup" transform="translate(693.8125,292.21875 )"><rect x="0" y="0" width="107.0625" height="71.0625" class=" "></rect><text y="15" x="0"><tspan class="title" x="35.671875">housing</tspan></text><line x1="0" y1="21.0625" y2="21.0625" x2="107.0625"></line><text x="5" y="31.0625" fill="white" class="classText"><tspan x="5">property_value</tspan><tspan x="5" dy="10">remaining_mortgage</tspan><tspan x="5" dy="10">ownership_type</tspan><tspan x="5" dy="10">share</tspan></text><line x1="0" y1="67.0625" y2="67.0625" x2="107.0625"></line><text x="5" y="82.0625" fill="white" class="classText"></text></g><g id="classid-vehicle-12" class="classGroup" transform="translate(850.875,292.21875 )"><rect x="0" y="0" width="124.828125" height="71.0625" class=" "></rect><text y="15" x="0"><tspan class="title" x="45.5390625">vehicle</tspan></text><line x1="0" y1="21" y2="21" x2="124.828125"></line><text x="5" y="31" fill="white" class="classText"><tspan x="5">vehicle_value</tspan><tspan x="5" dy="10">remaining_payments</tspan><tspan x="5" dy="10">purchased_over_3_years</tspan><tspan x="5" dy="10">regular_use</tspan></text><line x1="0" y1="67.0625" y2="67.0625" x2="124.828125"></line><text x="5" y="82.0625" fill="white" class="classText"></text></g><g id="classid-savings-13" class="classGroup" transform="translate(1025.703125,297.1875 )"><rect x="0" y="0" width="101.8125" height="61.125" class=" "></rect><text y="15" x="0"><tspan class="title" x="34.34375">savings</tspan></text><line x1="0" y1="21.0625" y2="21.0625" x2="101.8125"></line><text x="5" y="31.0625" fill="white" class="classText"><tspan x="5">savings_type</tspan><tspan x="5" dy="10">savings_value</tspan><tspan x="5" dy="10">savings_description</tspan></text><line x1="0" y1="57.125" y2="57.125" x2="101.8125"></line><text x="5" y="72.125" fill="white" class="classText"></text></g><g id="classid-assets-14" class="classGroup" transform="translate(1177.515625,297.21875 )"><rect x="0" y="0" width="93" height="61.0625" class=" "></rect><text y="15" x="0"><tspan class="title" x="32.515625">assets</tspan></text><line x1="0" y1="21" y2="21" x2="93"></line><text x="5" y="31" fill="white" class="classText"><tspan x="5">asset_type</tspan><tspan x="5" dy="10">asset_value</tspan><tspan x="5" dy="10">asset_description</tspan></text><line x1="0" y1="57.0625" y2="57.0625" x2="93"></line><text x="5" y="72.0625" fill="white" class="classText"></text></g><path d="M395.93359375,54.52573114248841L365.7819010416667,63.115192618740345C335.6302083333333,71.70465409499228,275.3268229166667,88.88357704749615,245.17513020833334,105.81158019041474C215.0234375,122.73958333333333,215.0234375,139.41666666666666,215.0234375,147.75520833333334L215.0234375,156.09375" id="edge0" class="relation" marker-end="url(#dependencyEnd)"></path><path d="M395.93359375,80.61300672389476L390.7350260416667,84.85458893657896C385.5364583333333,89.09617114926317,375.1393229166667,97.57933557463157,369.9407552083333,106.82612612064912C364.7421875,116.07291666666667,364.7421875,126.08333333333333,364.7421875,131.08854166666666L364.7421875,136.09375" id="edge1" class="relation" marker-end="url(#dependencyEnd)"></path><path d="M305.9296875,191.22387044467652L268.3541666666667,200.55114203723042C230.77864583333334,209.87841362978438,155.62760416666666,228.53295681489217,118.05208333333333,246.19356174077942C80.4765625,263.8541666666667,80.4765625,280.5208333333333,80.4765625,288.8541666666667L80.4765625,297.1875" id="edge2" class="relation" marker-end="url(#dependencyEnd)"></path><path d="M80.4765625,358.3125L80.4765625,366.6458333333333C80.4765625,374.9791666666667,80.4765625,391.6458333333333,80.4765625,404.1458333333333C80.4765625,416.6458333333333,80.4765625,424.9791666666667,80.4765625,429.1458333333333L80.4765625,433.3125" id="edge3" class="relation" marker-end="url(#dependencyEnd)"></path><path d="M313.5755231399469,217.15625L307.2569463666224,222.16145833333334C300.9383695932979,227.16666666666666,288.30121604664896,237.17708333333334,281.9826392733245,246.34895833333334C275.6640625,255.52083333333334,275.6640625,263.8541666666667,275.6640625,268.0208333333333L275.6640625,272.1875" id="edge4" class="relation" marker-end="url(#dependencyEnd)"></path><path d="M275.6640625,383.3125L275.6640625,387.4791666666667C275.6640625,391.6458333333333,275.6640625,399.9791666666667,275.6640625,409.984375C275.6640625,419.9895833333333,275.6640625,431.6666666666667,275.6640625,437.5052083333333L275.6640625,443.34375" id="edge5" class="relation" marker-end="url(#dependencyEnd)"></path><path d="M415.9088518600531,217.15625L422.22742863337754,222.16145833333334C428.5460054067021,227.16666666666666,441.18315895335104,237.17708333333334,447.50173572667546,250.52083333333334C453.8203125,263.8645833333333,453.8203125,280.5416666666667,453.8203125,288.8802083333333L453.8203125,297.21875" id="edge6" class="relation" marker-end="url(#dependencyEnd)"></path><path d="M423.5546875,193.8592644864058L453.8854166666667,202.7473037386715C484.2161458333333,211.63534299093718,544.8776041666666,229.4114214954686,575.2083333333334,248.30466908106766C605.5390625,267.1979166666667,605.5390625,287.2083333333333,605.5390625,297.2135416666667L605.5390625,307.21875" id="edge7" class="relation" marker-end="url(#dependencyEnd)"></path><path d="M494.18359375,51.26534659268521L535.98046875,60.39820549390435C577.77734375,69.53106439512347,661.37109375,87.79678219756174,703.16796875,103.59630776544753C744.96484375,119.39583333333333,744.96484375,132.72916666666666,744.96484375,139.39583333333334L744.96484375,146.0625" id="edge8" class="relation" marker-end="url(#dependencyEnd)"></path><path d="M494.18359375,46.38554630892507L577.64453125,56.33170525743756C661.10546875,66.27786420595005,828.02734375,86.17018210297503,911.48828125,100.28300771815418C994.94921875,114.39583333333333,994.94921875,122.72916666666667,994.94921875,126.89583333333333L994.94921875,131.0625" id="edge9" class="relation" marker-end="url(#dependencyEnd)"></path><path d="M936.55859375,193.2651352012242L905.0227864583334,202.25219600102017C873.4869791666666,211.23925680081615,810.4153645833334,229.21337840040806,778.8795572916666,245.70564753353736C747.34375,262.1979166666667,747.34375,277.2083333333333,747.34375,284.7135416666667L747.34375,292.21875" id="edge10" class="relation" marker-end="url(#dependencyEnd)"></path><path d="M942.2209159100975,222.1875L937.3989403417478,226.35416666666666C932.5769647733983,230.52083333333334,922.9330136366992,238.85416666666666,918.1110380683496,250.52604166666666C913.2890625,262.1979166666667,913.2890625,277.2083333333333,913.2890625,284.7135416666667L913.2890625,292.21875" id="edge11" class="relation" marker-end="url(#dependencyEnd)"></path><path d="M1047.6775215899027,222.1875L1052.499497158252,226.35416666666666C1057.3214727266018,230.52083333333334,1066.9654238633009,238.85416666666666,1071.7873994316503,251.35416666666666C1076.609375,263.8541666666667,1076.609375,280.5208333333333,1076.609375,288.8541666666667L1076.609375,297.1875" id="edge12" class="relation" marker-end="url(#dependencyEnd)"></path><path d="M1053.33984375,194.611873518528L1081.7858072916667,203.37447793210666C1110.2317708333333,212.13708234568534,1167.1236979166667,229.66229117284266,1195.5696614583333,246.763437253088C1224.015625,263.8645833333333,1224.015625,280.5416666666667,1224.015625,288.8802083333333L1224.015625,297.21875" id="edge13" class="relation" marker-end="url(#dependencyEnd)"></path></svg>