<svg id="mermaid-1647003182828" width="100%" xmlns="http://www.w3.org/2000/svg" xmlns:xlink="http://www.w3.org/1999/xlink" height="715.4375" style="max-width: 1619.765625px;" viewBox="-20 -20 1619.765625 715.4375"><style>#mermaid-1647003182828{font-family:"trebuchet ms",verdana,arial,sans-serif;font-size:16px;fill:#333;}#mermaid-1647003182828 .error-icon{fill:#552222;}#mermaid-1647003182828 .error-text{fill:#552222;stroke:#552222;}#mermaid-1647003182828 .edge-thickness-normal{stroke-width:2px;}#mermaid-1647003182828 .edge-thickness-thick{stroke-width:3.5px;}#mermaid-1647003182828 .edge-pattern-solid{stroke-dasharray:0;}#mermaid-1647003182828 .edge-pattern-dashed{stroke-dasharray:3;}#mermaid-1647003182828 .edge-pattern-dotted{stroke-dasharray:2;}#mermaid-1647003182828 .marker{fill:#333333;stroke:#333333;}#mermaid-1647003182828 .marker.cross{stroke:#333333;}#mermaid-1647003182828 svg{font-family:"trebuchet ms",verdana,arial,sans-serif;font-size:16px;}#mermaid-1647003182828 g.classGroup text{fill:#9370DB;fill:#131300;stroke:none;font-family:"trebuchet ms",verdana,arial,sans-serif;font-size:10px;}#mermaid-1647003182828 g.classGroup text .title{font-weight:bolder;}#mermaid-1647003182828 .classTitle{font-weight:bolder;}#mermaid-1647003182828 .node rect,#mermaid-1647003182828 .node circle,#mermaid-1647003182828 .node ellipse,#mermaid-1647003182828 .node polygon,#mermaid-1647003182828 .node path{fill:#ECECFF;stroke:#9370DB;stroke-width:1px;}#mermaid-1647003182828 .divider{stroke:#9370DB;stroke:1;}#mermaid-1647003182828 g.clickable{cursor:pointer;}#mermaid-1647003182828 g.classGroup rect{fill:#ECECFF;stroke:#9370DB;}#mermaid-1647003182828 g.classGroup line{stroke:#9370DB;stroke-width:1;}#mermaid-1647003182828 .classLabel .box{stroke:none;stroke-width:0;fill:#ECECFF;opacity:0.5;}#mermaid-1647003182828 .classLabel .label{fill:#9370DB;font-size:10px;}#mermaid-1647003182828 .relation{stroke:#333333;stroke-width:1;fill:none;}#mermaid-1647003182828 .dashed-line{stroke-dasharray:3;}#mermaid-1647003182828 #compositionStart,#mermaid-1647003182828 .composition{fill:#333333 !important;stroke:#333333 !important;stroke-width:1;}#mermaid-1647003182828 #compositionEnd,#mermaid-1647003182828 .composition{fill:#333333 !important;stroke:#333333 !important;stroke-width:1;}#mermaid-1647003182828 #dependencyStart,#mermaid-1647003182828 .dependency{fill:#333333 !important;stroke:#333333 !important;stroke-width:1;}#mermaid-1647003182828 #dependencyStart,#mermaid-1647003182828 .dependency{fill:#333333 !important;stroke:#333333 !important;stroke-width:1;}#mermaid-1647003182828 #extensionStart,#mermaid-1647003182828 .extension{fill:#333333 !important;stroke:#333333 !important;stroke-width:1;}#mermaid-1647003182828 #extensionEnd,#mermaid-1647003182828 .extension{fill:#333333 !important;stroke:#333333 !important;stroke-width:1;}#mermaid-1647003182828 #aggregationStart,#mermaid-1647003182828 .aggregation{fill:#ECECFF !important;stroke:#333333 !important;stroke-width:1;}#mermaid-1647003182828 #aggregationEnd,#mermaid-1647003182828 .aggregation{fill:#ECECFF !important;stroke:#333333 !important;stroke-width:1;}#mermaid-1647003182828 .edgeTerminals{font-size:11px;}#mermaid-1647003182828:root{--mermaid-font-family:"trebuchet ms",verdana,arial,sans-serif;}</style><g></g><defs><marker id="extensionStart" class="extension" refX="0" refY="7" markerWidth="190" markerHeight="240" orient="auto"><path d="M 1,7 L18,13 V 1 Z"></path></marker></defs><defs><marker id="extensionEnd" refX="19" refY="7" markerWidth="20" markerHeight="28" orient="auto"><path d="M 1,1 V 13 L18,7 Z"></path></marker></defs><defs><marker id="compositionStart" class="extension" refX="0" refY="7" markerWidth="190" markerHeight="240" orient="auto"><path d="M 18,7 L9,13 L1,7 L9,1 Z"></path></marker></defs><defs><marker id="compositionEnd" refX="19" refY="7" markerWidth="20" markerHeight="28" orient="auto"><path d="M 18,7 L9,13 L1,7 L9,1 Z"></path></marker></defs><defs><marker id="aggregationStart" class="extension" refX="0" refY="7" markerWidth="190" markerHeight="240" orient="auto"><path d="M 18,7 L9,13 L1,7 L9,1 Z"></path></marker></defs><defs><marker id="aggregationEnd" refX="19" refY="7" markerWidth="20" markerHeight="28" orient="auto"><path d="M 18,7 L9,13 L1,7 L9,1 Z"></path></marker></defs><defs><marker id="dependencyStart" class="extension" refX="0" refY="7" markerWidth="190" markerHeight="240" orient="auto"><path d="M 5,7 L9,13 L1,7 L9,1 Z"></path></marker></defs><defs><marker id="dependencyEnd" refX="19" refY="7" markerWidth="20" markerHeight="28" orient="auto"><path d="M 18,7 L9,13 L14,7 L9,1 Z"></path></marker></defs><g id="classid-laa_application-0" class="classGroup" transform="translate(352.734375,0 )"><rect x="0" y="0" width="104.09375" height="81.0625" class=" "></rect><text y="15" x="0"><tspan class="title" x="16.3828125">laa_application</tspan></text><line x1="0" y1="21.0625" y2="21.0625" x2="104.09375"></line><text x="5" y="31.0625" fill="white" class="classText"><tspan x="5">client_details</tspan><tspan x="5" dy="10">case_details</tspan><tspan x="5" dy="10">interests_of_justice</tspan><tspan x="5" dy="10">means_assessment</tspan><tspan x="5" dy="10">evidence</tspan></text><line x1="0" y1="77.0625" y2="77.0625" x2="104.09375"></line><text x="5" y="92.0625" fill="white" class="classText"></text></g><g id="classid-client_details-1" class="classGroup" transform="translate(0,131.0625 )"><rect x="0" y="0" width="142.5625" height="101.0625" class=" "></rect><text y="15" x="0"><tspan class="title" x="39.4765625">client_details</tspan></text><line x1="0" y1="21" y2="21" x2="142.5625"></line><text x="5" y="31" fill="white" class="classText"><tspan x="5">client</tspan><tspan x="5" dy="10">on_remand</tspan><tspan x="5" dy="10">other_legal_aid_cases</tspan><tspan x="5" dy="10">remanded_date</tspan><tspan x="5" dy="10">partner</tspan><tspan x="5" dy="10">partner_role_in_case</tspan><tspan x="5" dy="10">partner_conflict_of_interest</tspan></text><line x1="0" y1="97.0625" y2="97.0625" x2="142.5625"></line><text x="5" y="112.0625" fill="white" class="classText"></text></g><g id="classid-client-2" class="classGroup" transform="translate(1.35546875,307.15625 )"><rect x="0" y="0" width="44.796875" height="41.0625" class=" "></rect><text y="15" x="0"><tspan class="title" x="9.0625">client</tspan></text><line x1="0" y1="21" y2="21" x2="44.796875"></line><text x="5" y="31" fill="white" class="classText"><tspan x="5">person</tspan></text><line x1="0" y1="37.0625" y2="37.0625" x2="44.796875"></line><text x="5" y="52.0625" fill="white" class="classText"></text></g><g id="classid-partner-3" class="classGroup" transform="translate(220.9296875,307.125 )"><rect x="0" y="0" width="45.3125" height="41.125" class=" "></rect><text y="15" x="0"><tspan class="title" x="5">partner</tspan></text><line x1="0" y1="21.0625" y2="21.0625" x2="45.3125"></line><text x="5" y="31.0625" fill="white" class="classText"><tspan x="5">person</tspan></text><line x1="0" y1="37.125" y2="37.125" x2="45.3125"></line><text x="5" y="52.125" fill="white" class="classText"></text></g><g id="classid-person-4" class="classGroup" transform="translate(1.7578125,433.28125 )"><rect x="0" y="0" width="139.046875" height="91.0625" class=" "></rect><text y="15" x="0"><tspan class="title" x="53.6640625">person</tspan></text><line x1="0" y1="21.0625" y2="21.0625" x2="139.046875"></line><text x="5" y="31.0625" fill="white" class="classText"><tspan x="5">first_name</tspan><tspan x="5" dy="10">last_name</tspan><tspan x="5" dy="10">date_of_birth</tspan><tspan x="5" dy="10">national_insurance_number</tspan><tspan x="5" dy="10">email</tspan><tspan x="5" dy="10">address</tspan></text><line x1="0" y1="87.0625" y2="87.0625" x2="139.046875"></line><text x="5" y="102.0625" fill="white" class="classText"></text></g><g id="classid-address-5" class="classGroup" transform="translate(116.9921875,584.375 )"><rect x="0" y="0" width="92.8125" height="91.0625" class=" "></rect><text y="15" x="0"><tspan class="title" x="28.6171875">address</tspan></text><line x1="0" y1="21" y2="21" x2="92.8125"></line><text x="5" y="31" fill="white" class="classText"><tspan x="5">address_line_one</tspan><tspan x="5" dy="10">address_line_two</tspan><tspan x="5" dy="10">city</tspan><tspan x="5" dy="10">county</tspan><tspan x="5" dy="10">organisation</tspan><tspan x="5" dy="10">postcode</tspan></text><line x1="0" y1="87.0625" y2="87.0625" x2="92.8125"></line><text x="5" y="102.0625" fill="white" class="classText"></text></g><g id="classid-case_details-6" class="classGroup" transform="translate(192.5625,141.09375 )"><rect x="0" y="0" width="110.234375" height="81" class=" "></rect><text y="15" x="0"><tspan class="title" x="26.390625">case_details</tspan></text><line x1="0" y1="21" y2="21" x2="110.234375"></line><text x="5" y="31" fill="white" class="classText"><tspan x="5">case_type</tspan><tspan x="5" dy="10">court_type</tspan><tspan x="5" dy="10">co_defendant_names</tspan><tspan x="5" dy="10">offence_class</tspan><tspan x="5" dy="10">URN</tspan></text><line x1="0" y1="77" y2="77" x2="110.234375"></line><text x="5" y="92" fill="white" class="classText"></text></g><g id="classid-interests_of_justice-7" class="classGroup" transform="translate(352.796875,156.03125 )"><rect x="0" y="0" width="103.96875" height="51.125" class=" "></rect><text y="15" x="0"><tspan class="title" x="5">interests_of_justice</tspan></text><line x1="0" y1="21.0625" y2="21.0625" x2="103.96875"></line><text x="5" y="31.0625" fill="white" class="classText"><tspan x="5">reason</tspan><tspan x="5" dy="10">justification</tspan></text><line x1="0" y1="47.125" y2="47.125" x2="103.96875"></line><text x="5" y="62.125" fill="white" class="classText"></text></g><g id="classid-evidence-8" class="classGroup" transform="translate(506.765625,146.0625 )"><rect x="0" y="0" width="81.703125" height="71.0625" class=" "></rect><text y="15" x="0"><tspan class="title" x="19.6875">evidence</tspan></text><line x1="0" y1="21" y2="21" x2="81.703125"></line><text x="5" y="31" fill="white" class="classText"><tspan x="5">name</tspan><tspan x="5" dy="10">key</tspan><tspan x="5" dy="10">description</tspan><tspan x="5" dy="10">uploaded_date</tspan></text><line x1="0" y1="67.0625" y2="67.0625" x2="81.703125"></line><text x="5" y="82.0625" fill="white" class="classText"></text></g><g id="classid-means_assessment-9" class="classGroup" transform="translate(697.30078125,141.0625 )"><rect x="0" y="0" width="98.25" height="81.0625" class=" "></rect><text y="15" x="0"><tspan class="title" x="5">means_assessment</tspan></text><line x1="0" y1="21" y2="21" x2="98.25"></line><text x="5" y="31" fill="white" class="classText"><tspan x="5">benefits_status</tspan><tspan x="5" dy="10">total_income</tspan><tspan x="5" dy="10">income</tspan><tspan x="5" dy="10">outgoings</tspan><tspan x="5" dy="10">capital</tspan></text><line x1="0" y1="77.0625" y2="77.0625" x2="98.25"></line><text x="5" y="92.0625" fill="white" class="classText"></text></g><g id="classid-benefits_status-10" class="classGroup" transform="translate(316.2421875,297.15625 )"><rect x="0" y="0" width="90.234375" height="61.0625" class=" "></rect><text y="15" x="0"><tspan class="title" x="9.2109375">benefits_status</tspan></text><line x1="0" y1="21" y2="21" x2="90.234375"></line><text x="5" y="31" fill="white" class="classText"><tspan x="5">passported</tspan><tspan x="5" dy="10">client_benefits</tspan><tspan x="5" dy="10">partner_benefits</tspan></text><line x1="0" y1="57.0625" y2="57.0625" x2="90.234375"></line><text x="5" y="72.0625" fill="white" class="classText"></text></g><g id="classid-income-11" class="classGroup" transform="translate(684.26171875,287.15625 )"><rect x="0" y="0" width="117.625" height="81.0625" class=" "></rect><text y="15" x="0"><tspan class="title" x="41.8046875">income</tspan></text><line x1="0" y1="21" y2="21" x2="117.625"></line><text x="5" y="31" fill="white" class="classText"><tspan x="5">employment_status</tspan><tspan x="5" dy="10">employed_income</tspan><tspan x="5" dy="10">self_employed_income</tspan><tspan x="5" dy="10">other_income_sources</tspan><tspan x="5" dy="10">dependants</tspan></text><line x1="0" y1="77.0625" y2="77.0625" x2="117.625"></line><text x="5" y="92.0625" fill="white" class="classText"></text></g><g id="classid-employed_income-12" class="classGroup" transform="translate(488.671875,448.25 )"><rect x="0" y="0" width="160.953125" height="61.125" class=" "></rect><text y="15" x="0"><tspan class="title" x="37.7109375">employed_income</tspan></text><line x1="0" y1="21.0625" y2="21.0625" x2="160.953125"></line><text x="5" y="31.0625" fill="white" class="classText"><tspan x="5">paye</tspan><tspan x="5" dy="10">other_employed_income</tspan><tspan x="5" dy="10">other_employed_income_details</tspan></text><line x1="0" y1="57.125" y2="57.125" x2="160.953125"></line><text x="5" y="72.125" fill="white" class="classText"></text></g><g id="classid-paye-13" class="classGroup" transform="translate(524.0625,599.34375 )"><rect x="0" y="0" width="90.171875" height="61.125" class=" "></rect><text y="15" x="0"><tspan class="title" x="33.9609375">paye</tspan></text><line x1="0" y1="21.0625" y2="21.0625" x2="90.171875"></line><text x="5" y="31.0625" fill="white" class="classText"><tspan x="5">paye_date</tspan><tspan x="5" dy="10">paye_amount</tspan><tspan x="5" dy="10">paye_deductions</tspan></text><line x1="0" y1="57.125" y2="57.125" x2="90.171875"></line><text x="5" y="72.125" fill="white" class="classText"></text></g><g id="classid-self_employed_income-14" class="classGroup" transform="translate(309.25,423.25 )"><rect x="0" y="0" width="129.421875" height="111.125" class=" "></rect><text y="15" x="0"><tspan class="title" x="10.6640625">self_employed_income</tspan></text><line x1="0" y1="21.0625" y2="21.0625" x2="129.421875"></line><text x="5" y="31.0625" fill="white" class="classText"><tspan x="5">business_name</tspan><tspan x="5" dy="10">address</tspan><tspan x="5" dy="10">tax_liability_last_2_years</tspan><tspan x="5" dy="10">total_turnover</tspan><tspan x="5" dy="10">total_drawings</tspan><tspan x="5" dy="10">total_profit</tspan><tspan x="5" dy="10">profit_share</tspan><tspan x="5" dy="10">director_salary</tspan></text><line x1="0" y1="107.125" y2="107.125" x2="129.421875"></line><text x="5" y="122.125" fill="white" class="classText"></text></g><g id="classid-other_income_sources-15" class="classGroup" transform="translate(699.625,448.28125 )"><rect x="0" y="0" width="126.890625" height="61.0625" class=" "></rect><text y="15" x="0"><tspan class="title" x="10.1328125">other_income_sources</tspan></text><line x1="0" y1="21" y2="21" x2="126.890625"></line><text x="5" y="31" fill="white" class="classText"><tspan x="5">income_type</tspan><tspan x="5" dy="10">other_income_amount</tspan><tspan x="5" dy="10">other_income_frequency</tspan></text><line x1="0" y1="57.0625" y2="57.0625" x2="126.890625"></line><text x="5" y="72.0625" fill="white" class="classText"></text></g><g id="classid-dependants-16" class="classGroup" transform="translate(876.515625,458.28125 )"><rect x="0" y="0" width="76.546875" height="41.0625" class=" "></rect><text y="15" x="0"><tspan class="title" x="11.1015625">dependants</tspan></text><line x1="0" y1="21.0625" y2="21.0625" x2="76.546875"></line><text x="5" y="31.0625" fill="white" class="classText"><tspan x="5">date_of_birth</tspan></text><line x1="0" y1="37.0625" y2="37.0625" x2="76.546875"></line><text x="5" y="52.0625" fill="white" class="classText"></text></g><g id="classid-outgoings-17" class="classGroup" transform="translate(1017.0546875,297.125 )"><rect x="0" y="0" width="103.640625" height="61.125" class=" "></rect><text y="15" x="0"><tspan class="title" x="29.6015625">outgoings</tspan></text><line x1="0" y1="21.0625" y2="21.0625" x2="103.640625"></line><text x="5" y="31.0625" fill="white" class="classText"><tspan x="5">outgoing_type</tspan><tspan x="5" dy="10">outgoing_amount</tspan><tspan x="5" dy="10">outgoing_frequency</tspan></text><line x1="0" y1="57.125" y2="57.125" x2="103.640625"></line><text x="5" y="72.125" fill="white" class="classText"></text></g><g id="classid-capital-18" class="classGroup" transform="translate(1330.25390625,282.125 )"><rect x="0" y="0" width="116.78125" height="91.125" class=" "></rect><text y="15" x="0"><tspan class="title" x="42.640625">capital</tspan></text><line x1="0" y1="21.0625" y2="21.0625" x2="116.78125"></line><text x="5" y="31.0625" fill="white" class="classText"><tspan x="5">housing</tspan><tspan x="5" dy="10">vehicle</tspan><tspan x="5" dy="10">savings</tspan><tspan x="5" dy="10">assets</tspan><tspan x="5" dy="10">prohibited_assets</tspan><tspan x="5" dy="10">prohibited_description</tspan></text><line x1="0" y1="87.125" y2="87.125" x2="116.78125"></line><text x="5" y="102.125" fill="white" class="classText"></text></g><g id="classid-housing-19" class="classGroup" transform="translate(1003.0625,443.28125 )"><rect x="0" y="0" width="107.0625" height="71.0625" class=" "></rect><text y="15" x="0"><tspan class="title" x="35.671875">housing</tspan></text><line x1="0" y1="21.0625" y2="21.0625" x2="107.0625"></line><text x="5" y="31.0625" fill="white" class="classText"><tspan x="5">property_value</tspan><tspan x="5" dy="10">remaining_mortgage</tspan><tspan x="5" dy="10">ownership_type</tspan><tspan x="5" dy="10">share</tspan></text><line x1="0" y1="67.0625" y2="67.0625" x2="107.0625"></line><text x="5" y="82.0625" fill="white" class="classText"></text></g><g id="classid-vehicle-20" class="classGroup" transform="translate(1160.125,443.28125 )"><rect x="0" y="0" width="124.828125" height="71.0625" class=" "></rect><text y="15" x="0"><tspan class="title" x="45.5390625">vehicle</tspan></text><line x1="0" y1="21" y2="21" x2="124.828125"></line><text x="5" y="31" fill="white" class="classText"><tspan x="5">vehicle_value</tspan><tspan x="5" dy="10">remaining_payments</tspan><tspan x="5" dy="10">purchased_over_3_years</tspan><tspan x="5" dy="10">regular_use</tspan></text><line x1="0" y1="67.0625" y2="67.0625" x2="124.828125"></line><text x="5" y="82.0625" fill="white" class="classText"></text></g><g id="classid-savings-21" class="classGroup" transform="translate(1334.953125,448.25 )"><rect x="0" y="0" width="101.8125" height="61.125" class=" "></rect><text y="15" x="0"><tspan class="title" x="34.34375">savings</tspan></text><line x1="0" y1="21.0625" y2="21.0625" x2="101.8125"></line><text x="5" y="31.0625" fill="white" class="classText"><tspan x="5">savings_type</tspan><tspan x="5" dy="10">savings_value</tspan><tspan x="5" dy="10">savings_description</tspan></text><line x1="0" y1="57.125" y2="57.125" x2="101.8125"></line><text x="5" y="72.125" fill="white" class="classText"></text></g><g id="classid-assets-22" class="classGroup" transform="translate(1486.765625,448.28125 )"><rect x="0" y="0" width="93" height="61.0625" class=" "></rect><text y="15" x="0"><tspan class="title" x="32.515625">assets</tspan></text><line x1="0" y1="21" y2="21" x2="93"></line><text x="5" y="31" fill="white" class="classText"><tspan x="5">asset_type</tspan><tspan x="5" dy="10">asset_value</tspan><tspan x="5" dy="10">asset_description</tspan></text><line x1="0" y1="57.0625" y2="57.0625" x2="93"></line><text x="5" y="72.0625" fill="white" class="classText"></text></g><path d="M352.734375,50.75822684360945L305.8255208333333,59.97560570300788C258.9166666666667,69.1929845624063,165.09895833333334,87.62774228120315,118.19010416666667,101.01178780726825C71.28125,114.39583333333333,71.28125,122.72916666666667,71.28125,126.89583333333333L71.28125,131.0625" id="edge0" class="relation" marker-end="url(#dependencyEnd)"></path><path d="M39.48492610932975,232.125L36.86308946610813,236.29166666666666C34.2412528228865,240.45833333333334,28.99757953644325,248.79166666666666,26.375742893221627,261.296875C23.75390625,273.8020833333333,23.75390625,290.4791666666667,23.75390625,298.8177083333333L23.75390625,307.15625" id="edge1" class="relation" marker-end="url(#dependencyEnd)"></path><path d="M142.5625,212.8405024370891L159.39973958333334,220.2212520309076C176.23697916666666,227.60200162472606,209.91145833333334,242.36350081236301,226.74869791666666,258.07758373951486C243.5859375,273.7916666666667,243.5859375,290.4583333333333,243.5859375,298.7916666666667L243.5859375,307.125" id="edge2" class="relation" marker-end="url(#dependencyEnd)"></path><path d="M23.75390625,348.21875L23.75390625,356.5572916666667C23.75390625,364.8958333333333,23.75390625,381.5729166666667,27.19831744367404,395.75C30.642728637348075,409.9270833333333,37.53155102469615,421.6041666666667,40.975962218370185,427.4427083333333L44.42037341204422,433.28125" id="edge3" class="relation" marker-end="url(#dependencyEnd)"></path><path d="M243.5859375,348.25L243.5859375,356.5833333333333C243.5859375,364.9166666666667,243.5859375,381.5833333333333,226.45572916666666,397.9260390689942C209.32552083333334,414.268744804655,175.06510416666666,430.28748960931006,157.93489583333334,438.2968620116376L140.8046875,446.30623441396506" id="edge4" class="relation" marker-end="url(#dependencyEnd)"></path><path d="M71.28125,524.34375L71.28125,530.1822916666666C71.28125,536.0208333333334,71.28125,547.6979166666666,78.89973958333333,559.3696975800752C86.51822916666667,571.0414784934837,101.75520833333333,582.7079569869675,109.37369791666667,588.5411962337093L116.9921875,594.3744354804512" id="edge5" class="relation" marker-end="url(#dependencyEnd)"></path><path d="M352.734375,62.241389116813366L335.2252604166667,69.54490759734448C317.7161458333333,76.84842607787557,282.6979166666667,91.4554630389378,265.1888020833333,104.59752318613556C247.6796875,117.73958333333333,247.6796875,129.41666666666666,247.6796875,135.25520833333334L247.6796875,141.09375" id="edge6" class="relation" marker-end="url(#dependencyEnd)"></path><path d="M404.78125,81.0625L404.78125,85.22916666666667C404.78125,89.39583333333333,404.78125,97.72916666666667,404.78125,110.22395833333333C404.78125,122.71875,404.78125,139.375,404.78125,147.703125L404.78125,156.03125" id="edge7" class="relation" marker-end="url(#dependencyEnd)"></path><path d="M456.828125,64.40967189465624L471.9596354166667,71.35180991221354C487.0911458333333,78.29394792977082,517.3541666666666,92.17822396488542,532.4856770833334,105.78702864910936C547.6171875,119.39583333333333,547.6171875,132.72916666666666,547.6171875,139.39583333333334L547.6171875,146.0625" id="edge8" class="relation" marker-end="url(#dependencyEnd)"></path><path d="M456.828125,50.51442392895119L505.0944010416667,59.772436607459326C553.3606770833334,69.03044928596746,649.8932291666666,87.54647464298374,698.1595052083334,102.63782065482519C746.42578125,117.72916666666667,746.42578125,129.39583333333334,746.42578125,135.22916666666666L746.42578125,141.0625" id="edge9" class="relation" marker-end="url(#dependencyEnd)"></path><path d="M697.30078125,191.2296792735628L641.310546875,202.212232727969C585.3203125,213.1947861823752,473.33984375,235.15989309118763,417.349609375,252.8143215455938C361.359375,270.46875,361.359375,283.8125,361.359375,290.484375L361.359375,297.15625" id="edge10" class="relation" marker-end="url(#dependencyEnd)"></path><path d="M744.6272803966694,222.125L744.3684367888912,227.95833333333334C744.1095931811129,233.79166666666666,743.5919059655565,245.45833333333334,743.3330623577782,256.296875C743.07421875,267.1354166666667,743.07421875,277.1458333333333,743.07421875,282.1510416666667L743.07421875,287.15625" id="edge11" class="relation" marker-end="url(#dependencyEnd)"></path><path d="M684.26171875,351.54800533408195L665.076171875,359.331671111735C645.890625,367.11533688938795,607.51953125,382.682668444694,588.333984375,398.79966755568034C569.1484375,414.9166666666667,569.1484375,431.5833333333333,569.1484375,439.9166666666667L569.1484375,448.25" id="edge12" class="relation" marker-end="url(#dependencyEnd)"></path><path d="M569.1484375,509.375L569.1484375,517.7083333333334C569.1484375,526.0416666666666,569.1484375,542.7083333333334,569.1484375,557.703125C569.1484375,572.6979166666666,569.1484375,586.0208333333334,569.1484375,592.6822916666666L569.1484375,599.34375" id="edge13" class="relation" marker-end="url(#dependencyEnd)"></path><path d="M684.26171875,338.9305444583197L632.544921875,348.8171203819331C580.828125,358.70369630554643,477.39453125,378.47684815277324,425.677734375,392.5300907430533C373.9609375,406.5833333333333,373.9609375,414.9166666666667,373.9609375,419.0833333333333L373.9609375,423.25" id="edge14" class="relation" marker-end="url(#dependencyEnd)"></path><path d="M373.9609375,534.375L373.9609375,538.5416666666666C373.9609375,542.7083333333334,373.9609375,551.0416666666666,346.6015625,564.3727900526862C319.2421875,577.7039134387059,264.5234375,596.0328268774117,237.1640625,605.1972835967646L209.8046875,614.3617403161176" id="edge15" class="relation" marker-end="url(#dependencyEnd)"></path><path d="M754.5600175071967,368.21875L755.9784000059972,373.2239583333333C757.3967825047979,378.2291666666667,760.2335475023989,388.2395833333333,761.6519300011995,401.5833333333333C763.0703125,414.9270833333333,763.0703125,431.6041666666667,763.0703125,439.9427083333333L763.0703125,448.28125" id="edge16" class="relation" marker-end="url(#dependencyEnd)"></path><path d="M801.88671875,351.8552244705294L820.7037760416666,359.58768705877446C839.5208333333334,367.3201496470196,877.1549479166666,382.7850748235098,895.9720052083334,400.52274574508823C914.7890625,418.2604166666667,914.7890625,438.2708333333333,914.7890625,448.2760416666667L914.7890625,458.28125" id="edge17" class="relation" marker-end="url(#dependencyEnd)"></path><path d="M795.55078125,193.10090350043006L841.1048177083334,203.77158625035838C886.6588541666666,214.4422690002867,977.7669270833334,235.78363450014334,1023.3209635416666,253.12098391673837C1068.875,270.4583333333333,1068.875,283.7916666666667,1068.875,290.4583333333333L1068.875,297.125" id="edge18" class="relation" marker-end="url(#dependencyEnd)"></path><path d="M795.55078125,187.3713338158727L894.3997395833334,198.9969448465606C993.2486979166666,210.6225558772485,1190.9466145833333,233.87377793862424,1289.7955729166667,249.66605563597878C1388.64453125,265.4583333333333,1388.64453125,273.7916666666667,1388.64453125,277.9583333333333L1388.64453125,282.125" id="edge19" class="relation" marker-end="url(#dependencyEnd)"></path><path d="M1330.25390625,340.09580833480385L1284.6438802083333,349.78817361233655C1239.0338541666667,359.48053888986925,1147.8138020833333,378.86526944493465,1102.2037760416667,396.06284305580067C1056.59375,413.2604166666667,1056.59375,428.2708333333333,1056.59375,435.7760416666667L1056.59375,443.28125" id="edge20" class="relation" marker-end="url(#dependencyEnd)"></path><path d="M1330.25390625,352.4921527761447L1312.3014322916667,360.11846064678724C1294.3489583333333,367.74476851742975,1258.4440104166667,382.9973842587149,1240.4915364583333,398.12890046269075C1222.5390625,413.2604166666667,1222.5390625,428.2708333333333,1222.5390625,435.7760416666667L1222.5390625,443.28125" id="edge21" class="relation" marker-end="url(#dependencyEnd)"></path><path d="M1386.846144264836,373.25L1386.6816827206967,377.4166666666667C1386.5172211765573,381.5833333333333,1386.1882980882785,389.9166666666667,1386.0238365441394,402.4166666666667C1385.859375,414.9166666666667,1385.859375,431.5833333333333,1385.859375,439.9166666666667L1385.859375,448.25" id="edge22" class="relation" marker-end="url(#dependencyEnd)"></path><path d="M1447.03515625,356.1770402857683L1461.4069010416667,363.18920023814024C1475.7786458333333,370.20136019051216,1504.5221354166667,384.2256800952561,1518.8938802083333,399.5763817142947C1533.265625,414.9270833333333,1533.265625,431.6041666666667,1533.265625,439.9427083333333L1533.265625,448.28125" id="edge23" class="relation" marker-end="url(#dependencyEnd)"></path></svg>